<svg xmlns="http://www.w3.org/2000/svg" viewBox="0 0 52.23 66.3"><defs><style>.cls-1{fill:#ededed;}.cls-2{fill:#f0f0f0;}.cls-3{fill:#e7e7e7;}.cls-4{fill:#0c0c0c;}.cls-5{fill:#bcbcbc;}.cls-6{fill:#dadada;}.cls-7{fill:#3d3d3d;}.cls-8{fill:#515151;}.cls-9{fill:#d9d9d9;}.cls-10{fill:#cfcfcf;}.cls-11{fill:#555;}.cls-12{fill:#4a4a4a;}.cls-13{fill:#696969;}.cls-14{fill:#707070;}.cls-15{fill:#141414;}.cls-16{fill:#111;}.cls-17{fill:#7a7a7a;}.cls-18{fill:#7f7f7f;}.cls-19{fill:#585858;}.cls-20{fill:#5a5a5a;}.cls-21{fill:#656565;}.cls-22{fill:#5d5d5d;}.cls-23{fill:#595959;}.cls-24{fill:#303030;}.cls-25{fill:#1f1f1f;}.cls-26{fill:#e8e8e8;}.cls-27{fill:#8c8c8c;}.cls-28{fill:#6f6f6f;}.cls-29{fill:#393939;}.cls-30{fill:#545454;}.cls-31{fill:#8d8d8d;}.cls-32{fill:#434343;}.cls-33{fill:#999;}.cls-34{fill:#969696;}.cls-35{fill:#575757;}.cls-36{fill:#c9c9c9;}.cls-37{fill:#3e3e3e;}.cls-38{fill:#cdcdcd;}.cls-39{fill:#b5b5b5;}.cls-40{fill:#b3b3b3;}.cls-41{fill:#9c9c9c;}.cls-42{fill:#d5d5d5;}.cls-43{fill:#121212;}.cls-44{fill:#5f5f5f;}.cls-45{fill:silver;}.cls-46{fill:#c2c2c2;}.cls-47{fill:#e3e3e3;}.cls-48{fill:#dedede;}.cls-49{fill:#c6c6c6;}.cls-50{fill:#5b5b5b;}.cls-51{fill:#d2d2d2;}.cls-52{fill:#939393;}.cls-53{fill:#a8a8a8;}.cls-54{fill:#323232;}.cls-55{fill:#2f2f2f;}.cls-56{fill:#333;}.cls-57{fill:#efefef;}.cls-58{fill:#494949;}.cls-59{fill:#3f3f3f;}.cls-60{fill:#252525;}.cls-61{fill:#424242;}.cls-62{fill:#9e9e9e;}.cls-63{fill:#f1f1f1;}.cls-64{fill:#e9e9e9;}.cls-65{fill:#0e0e0e;}.cls-66{fill:#2e2e2e;}.cls-67{fill:#1c1c1c;}.cls-68{fill:#3c3c3c;}.cls-69{fill:#383838;}.cls-70{fill:#282828;}.cls-71{fill:#474747;}.cls-72{fill:#eee;}.cls-73{fill:#0d0d0d;}.cls-74{fill:#232323;}.cls-75{fill:#464646;}.cls-76{fill:#535353;}.cls-77{fill:#414141;}.cls-78{fill:#404040;}.cls-79{fill:#444;}.cls-80{fill:#373737;}.cls-81{fill:#9b9b9b;}.cls-82{fill:#242424;}.cls-83{fill:#bfbfbf;}.cls-84{fill:#222;}.cls-85{fill:#bbb;}.cls-86{fill:#cbcbcb;}.cls-87{fill:#acacac;}.cls-88{fill:#e5e5e5;}.cls-89{fill:#0f0f0f;}.cls-90{fill:#101010;}</style></defs><g id="Layer_2"><g id="Layer_9"><path class="cls-1" d="M6.52,59.23C6.35,59.14,6.17,59,6,59c-1.77,0-3.55,0-5.32,0,.42-1.06.84-2.12,1.24-3.19.2-.53.37-1.08.55-1.62a22.23,22.23,0,0,1,2.08-2c1.83-1.36,3.72-2.65,5.62-3.92,2.29-1.55,4.54-3.13,5.74-5.77a22.39,22.39,0,0,0,.75-2.5c.21-1.14.24-2.31.42-3.46.58-3.76,1.2-7.51,1.81-11.27l.42-2.58h.1l.15,7.79v9.68c0,.23,0,.45.06.68l-.07.07c0,.26,0,.52,0,.78v8.63a5.05,5.05,0,0,0,.07.68l-.07.07c0,.23,0,.45,0,.67,0,1.33.09,2.66.13,4l-1.11,2.07-.33.07v-.07l.16-.28H9.93c-1.12,0-1.41.22-1.7,1.31-.12.07-.23.19-.35.2-.33,0-.66,0-1,0C6.76,59,6.65,59.13,6.52,59.23Z"/><path class="cls-2" d="M51.48,59H47.09c-1,0-1,0-1.05,1-.07-.31,0-.77-.25-.9s-.68-.06-1-.08h-.17c-.34.06-.6,0-.66-.41l-.49-.88-.81-1.22c-.19-.29-.41-.58-.58-.89-.26-.47-.44-1-.72-1.42s-.69-.83-1-1.27c-.48-.69-.9-1.42-1.38-2.1s-1.13-1.44-1.63-2.19a35.08,35.08,0,0,1-2.1-3.38,11.48,11.48,0,0,1-1-4.49c-.12-1.79-.3-3.56-.43-5.35-.08-1.07-.08-2.16-.16-3.24-.11-1.56-.26-3.11-.38-4.67a2.2,2.2,0,0,1,.07-.56h.08c.13.37.26.75.38,1.13.45,2.8.91,5.59,1.33,8.39.21,1.4.29,2.81.55,4.2a15.59,15.59,0,0,0,.81,2.22,12.56,12.56,0,0,0,3.93,4.24c2.38,1.61,4.73,3.27,7.08,4.94A18.24,18.24,0,0,1,49,53.31a4.34,4.34,0,0,1,.66.92C50.3,55.8,50.88,57.38,51.48,59Z"/><path class="cls-3" d="M34.66,58c-.09.15-.26.3-.27.45,0,.88,0,1.75,0,2.63a.6.6,0,0,1-.41.41c-.56.05-1.13,0-1.7,0l-.36-.06-.95,0c-.51,0-1-.06-1.53-.06-.34,0-.47-.13-.46-.47a19.93,19.93,0,0,0,0-2.32,1.84,1.84,0,0,1,.87-2.11.27.27,0,0,0,.11-.19s-.1-.11-.15-.11l-2.45,0H27l-.4.6c-.2-.62-.12-.73.57-.73L32,56a5.15,5.15,0,0,1,.89.85,7.78,7.78,0,0,1,.53,1.37.94.94,0,0,0,.37,0,.3.3,0,0,0,.13-.27,6.51,6.51,0,0,0-.23-.71l.3.33h0Z"/><path class="cls-4" d="M15.91,42.41c-1.2,2.64-3.45,4.22-5.74,5.77-1.9,1.27-3.79,2.56-5.62,3.92a22.23,22.23,0,0,0-2.08,2,4.87,4.87,0,0,0-.32.52Q1.27,56.81.4,59l-.34-.06,2-4.81a8.41,8.41,0,0,1,1.12-1.49c1-.84,2.05-1.6,3.1-2.35q2.66-1.89,5.34-3.72a9.64,9.64,0,0,0,4-4.79,37,37,0,0,0,.93-4.38,5.4,5.4,0,0,0,0-.7l0-.08c0-.19.12-.39.16-.59.84-4.93,1.67-9.87,2.52-14.81a1.47,1.47,0,0,1,.21-.44c0,.08,0,.16,0,.24-.86,5.67-1.69,11.34-2.59,17C16.65,39.47,16.24,40.93,15.91,42.41Z"/><path class="cls-5" d="M31.38,9.66c.47,2.59,1,5.18,1.38,7.78A19.82,19.82,0,0,1,32.81,20a3.85,3.85,0,0,0,.13.66l-.14.06-.07.22c0,.59-.13,1.19-.13,1.79,0,1.43.06,2.86.06,4.29,0,.49-.13,1-.11,1.49,0,.7.12,1.4.19,2.1a1.09,1.09,0,0,0-.13.37c0,1.86-.06,3.71-.07,5.56,0,1.37,0,2.73,0,4.09h-.07l-.34-.2.14-.56h.06c0-.49.11-1,.14-1.47,0-.12-.09-.25-.15-.37h0a1.45,1.45,0,0,1,.11-1.53h0c0-.55.06-1.1.07-1.65,0-.06-.07-.13-.13-.18a1.26,1.26,0,0,1,.07-1.53h0c0-.55,0-1.1.07-1.65,0,0-.08-.1-.1-.17a2.53,2.53,0,0,1-.2-.7c0-.08.24-.17.41-.27l-.31-.22h0l.13-.34V28a1.16,1.16,0,0,1,0-1.57V24.64c-.09-.1-.26-.19-.26-.28,0-.48-.19-1,.31-1.38l-.06-1.7a2.26,2.26,0,0,1-.24-.72c0-.13.26-.26.33-.33a2.61,2.61,0,0,1-.34-.9,31.22,31.22,0,0,0-1.36-9.21c-.09-.34-.11-.71-.17-1.06l.62.61Z"/><path class="cls-6" d="M15.91,42.41c.33-1.48.74-2.94,1-4.44.9-5.66,1.73-11.33,2.59-17,0-.08,0-.16,0-.24l-.2-.07.2-.28a3.08,3.08,0,0,0,.61-.06,3.06,3.06,0,0,0,.56-.35c0,.68,0,1.36,0,2,0,2.49,0,5,.07,7.46,0,.1.18.21.27.32l-1.44.61-.15-7.79h-.1l-.42,2.58c-.61,3.76-1.23,7.51-1.81,11.27-.18,1.15-.21,2.32-.42,3.46A22.39,22.39,0,0,1,15.91,42.41ZM20,22.14h0c0,.24,0,.48,0,.72,0,.06.09.12.14.19s.12-.12.12-.18c0-.45,0-.91,0-1.36,0-.08-.1-.15-.15-.22-.05.08-.13.15-.13.24S20,21.94,20,22.14Zm0,3.38c0,.22,0,.45,0,.68a.49.49,0,0,0,.13.2c0-.06.13-.13.13-.19,0-.46,0-.92,0-1.37,0-.07-.09-.13-.14-.19s-.11.12-.12.18C20,25.06,20,25.29,20,25.52Zm.28,3.38h0c0-.23,0-.47,0-.71,0-.06-.08-.12-.13-.17s-.12.11-.12.16c0,.47,0,.94,0,1.4,0,.07.1.13.15.19s.11-.12.11-.18C20.27,29.35,20.27,29.12,20.27,28.9Z"/><path class="cls-7" d="M27.81,1l.33.48-.28,0a1.13,1.13,0,0,0,0,.26l1.52,6-.62-.34-.62-.2a1.53,1.53,0,0,0-.36-.07H25.4V7h2.19a1.64,1.64,0,0,1-.18-.46c-.11-1-.19-2-.29-3C27,2.77,27,2,26.81,1.14A.82.82,0,0,0,26.25.6c-.2,0-.43.3-.62.5s-.06.23-.08.36c-.12,1.23-.22,2.47-.37,3.71-.08.61-.26,1.22-.4,1.83l-.27.06-.28,0a7.41,7.41,0,0,0,.27-1c.25-1.52.5-3,.72-4.57A1.3,1.3,0,0,1,26,.39c.52-.2.83.19,1.18.49.1.09.33,0,.5,0Z"/><path class="cls-8" d="M19.29,20.66l.2.07a1.47,1.47,0,0,0-.21.44c-.85,4.94-1.68,9.88-2.52,14.81,0,.2-.11.4-.16.59s-.21.22-.24.34a20,20,0,0,0-.43,2.18,9,9,0,0,1-3.68,6.48c-2.36,1.75-4.81,3.37-7.2,5.07-1.16.82-2.45,1.54-3,3l0-.19a2.65,2.65,0,0,1,.33-.7A14.94,14.94,0,0,1,4,51.21c1-.78,2.11-1.48,3.14-2.26a1.63,1.63,0,0,0,.47-.82c.19-.66.31-1.34.46-2a1.33,1.33,0,0,1,.09.37c0,.56,0,1.12-.09,1.83.52-.37.92-.63,1.29-.93a.72.72,0,0,0,.22-.46c0-1.16.05-2.32.08-3.48l.13-.14.28-.2c.54-.29,1-.09,1.46.62a1.22,1.22,0,0,0-.29-.23c-.24-.11-.52-.3-.72-.24s-.28.42-.3.65c0,.61,0,1.23,0,1.85v1l.75-.53,1.44-1.09a2.58,2.58,0,0,0,.54-.3,9.68,9.68,0,0,0,2.88-5.69c.95-5.5,2-11,3.08-16.46C19,22,19.14,21.32,19.29,20.66Z"/><path class="cls-9" d="M20.3,61.77c-.11-.09-.22-.26-.34-.26-.56,0-1.13,0-1.7,0,0-.92,0-1.84.07-2.77a3.78,3.78,0,0,1,.14-.65l.34.19h.26c0,1,0,1.91,0,2.87a.31.31,0,0,0,.22.21c.54,0,1.09,0,1.64,0a.33.33,0,0,0,.22-.21A6.65,6.65,0,0,0,21.18,60c0-.84-.11-1.69-.09-2.53s.51-1.37,1.46-1.37h1.2a3.36,3.36,0,0,1-.6.41.87.87,0,0,0-.65.86c0,1.18,0,2.37-.07,3.55a.51.51,0,0,1-.33.38c-.5.08-1,.09-1.5.13l-.28.38Z"/><path class="cls-6" d="M19.5,20.25a44.14,44.14,0,0,1,1.36-9.71c.09-.33.15-.66.22-1,.07,0,.17,0,.21,0,.23-.23.45-.47.67-.71a4.07,4.07,0,0,1-.07.61A39.76,39.76,0,0,0,20.66,19.7Z"/><path class="cls-10" d="M19.5,20.25l1.16-.55c.56-.05,1.11-.12,1.67-.13,1.06,0,2.13,0,3.19,0,.43,0,.58-.11.57-.56,0-1.51,0-3,0-4.52,0-.13,0-.25,0-.38l-.4,0c.1-.11.27-.22.28-.35a11.8,11.8,0,0,0,0-1.33c0-.08-.13-.15-.2-.22.12-.19.32-.38.33-.57,0-1.5,0-3,0-4.51h.14V29.79c0,3.27,0,6.55,0,9.82a5,5,0,0,1-.06.54l-.07-.07V34.25c0-1,0-2.07,0-3.11,0-.38,0-.76-.07-1.15a3.18,3.18,0,0,0-.43-.06H22l-1.23.2a.7.7,0,0,0-.64.85l-.53-.51V30.4L21,29.79h4.34c.22,0,.45,0,.67-.06a3.06,3.06,0,0,0,.07-.4q0-4.53,0-9c0-.37-.11-.51-.49-.51-1.33,0-2.66,0-4,0a4.66,4.66,0,0,0-1,.19,3.06,3.06,0,0,1-.56.35,3.08,3.08,0,0,1-.61.06Z"/><path class="cls-11" d="M34.66,58l-.63-.4a2.44,2.44,0,0,0,.52.12h8.06a1,1,0,0,1,1,1.28l-.52-.93A9.67,9.67,0,0,0,41.79,58a.62.62,0,0,0-.39.4c-.06.6,0,1.2-.09,1.8,0,.3,0,.48.35.51H40.9c-.45,0-.53-.23-.48-.63a10.85,10.85,0,0,0,.06-1.4c0-.19-.06-.54-.15-.56a3.79,3.79,0,0,0-1,0s-.11.14-.12.22c-.05.64-.08,1.27-.15,1.91,0,.13-.19.23-.29.35l-.53-.15c0-.63.06-1.27.11-1.9,0-.37,0-.54-.47-.52C36.8,58,35.73,58,34.66,58Z"/><path class="cls-12" d="M44.48,46.05c.16.71.37,1.42.46,2.14a1.44,1.44,0,0,0,.66,1.14c.92.61,1.84,1.24,2.71,1.92A16.2,16.2,0,0,1,50,52.81c.16.16.19.43.29.64,0,0,0,.1,0,0a10.55,10.55,0,0,0-1.47-1.61c-2.83-2-5.71-4-8.54-6.07a8.92,8.92,0,0,1-3.73-5.67c-.21-1.08-.41-2.16-.61-3.23l.13.06a17.12,17.12,0,0,1,.4,1.83,9.43,9.43,0,0,0,3.45,6.55l1.57,1.11c0-.81,0-1.46,0-2.1a7.25,7.25,0,0,1,.26-1.21c.52-.32.87-.05,1.18.34-.95-.35-.82-.07-.89.68s0,1.23,0,1.84a1.15,1.15,0,0,0,.77,1.26l1.8,1.29.16-.08Z"/><path class="cls-13" d="M19.77,65.75l-.07-.07c.44.08.64-.09.66-.55.05-.83.16-1.66.23-2.49,0-.38.05-.77.07-1.15.47,0,.93,0,1.4,0,1.07,0,2.13,0,3.2,0v.2l-.48-.19H23.61a8.18,8.18,0,0,0-1,0,.51.51,0,0,0-.35.28c-.17,1.24-.32,2.49-.46,3.74,0,.09.1.18.16.27Z"/><path class="cls-14" d="M35.9,36.86c.2,1.07.4,2.15.61,3.23a8.92,8.92,0,0,0,3.73,5.67c2.83,2,5.71,4,8.54,6.07a10.55,10.55,0,0,1,1.47,1.61c0,.11,0,.06,0,0,.66,1.65,1.32,3.29,2,4.94.07.16,0,.38-.05.57h-.07a.88.88,0,0,0,0-.29q-.93-2.29-1.88-4.57a4.28,4.28,0,0,0-1.88-2.41q-3.91-2.77-7.85-5.51a9.16,9.16,0,0,1-3.84-5c-.4-1.4-.57-2.87-.85-4.3Z"/><path class="cls-14" d="M2,53.45l0,.19c.58-1.46,1.87-2.18,3-3,2.39-1.7,4.84-3.32,7.2-5.07a9,9,0,0,0,3.68-6.48,20,20,0,0,1,.43-2.18c0-.12.16-.22.24-.34l0,.08c-.17.9-.38,1.79-.49,2.7A9.27,9.27,0,0,1,12,46c-2.79,2-5.6,3.93-8.37,5.92a3.86,3.86,0,0,0-1.61,2.2l-2,4.81c0-.18-.1-.39,0-.55C.54,57,1.08,55.72,1.61,54.41,1.74,54.09,1.86,53.77,2,53.45Z"/><path class="cls-15" d="M44.48,46.05l.24,2.38-.16.08-1.8-1.29c0-1,0-2,0-3a1.28,1.28,0,0,1,.14-.35,1.89,1.89,0,0,1,.3.19l.54.56Z"/><path class="cls-16" d="M29.38,7.68l-1.52-6a1.13,1.13,0,0,1,0-.26l.28,0,.68,1.18a1.94,1.94,0,0,0,.07.33c.44,1.35.9,2.7,1.31,4.06a18.32,18.32,0,0,1,.39,1.93L29.72,8Z"/><path class="cls-17" d="M9.61,43.44c0,1.16,0,2.32-.08,3.48a.72.72,0,0,1-.22.46c-.37.3-.77.56-1.29.93,0-.71.07-1.27.09-1.83A1.33,1.33,0,0,0,8,46.11Z"/><path class="cls-18" d="M24.08,1.7,25.18.4a2,2,0,0,0-.32.51C24.31,3,23.78,5.07,23.25,7.15a1,1,0,0,0,0,.34l-1,.95a1.54,1.54,0,0,1,0-.37c.5-1.75,1-3.49,1.52-5.23C23.9,2.46,24,2.08,24.08,1.7Z"/><path class="cls-19" d="M24.08,1.7c-.1.38-.18.76-.29,1.14-.5,1.74-1,3.48-1.52,5.23a1.54,1.54,0,0,0,0,.37L22,8.85c-.22.24-.44.48-.67.71,0,0-.14,0-.21,0,.76-2.18,1.5-4.36,2.28-6.53A8.52,8.52,0,0,1,24.08,1.7Z"/><path class="cls-20" d="M18.25,57.72v.07L18.1,58H18c-1.16,0-2.32,0-3.48,0-.09,0-.28.19-.27.29,0,.52.07,1,.1,1.54,0,.22,0,.44-.05.67h-.14c-.07-.7-.15-1.4-.2-2.1,0-.35-.18-.45-.5-.45-1.07,0-2.14,0-3.21,0a1.22,1.22,0,0,1-.27,0c-.55-.09-.73.13-.71.69a19,19,0,0,1-.12,2H8.65c0-.21.09-.42.1-.63,0-.39.19-.83-.3-1.08.25-1,.47-1.17,1.21-1.17Z"/><path class="cls-21" d="M8.45,58.89c.49.25.33.69.3,1.08,0,.21-.07.42-.1.63h-1L6.52,60.4h0V59.23c.13-.1.24-.26.37-.28.33,0,.66,0,1,0,.12,0,.23-.13.35-.2Z"/><path class="cls-22" d="M23.28,7.49a1,1,0,0,1,0-.34C23.78,5.07,24.31,3,24.86.91A2,2,0,0,1,25.18.4,1.72,1.72,0,0,1,27.81,1L27.66.89c-.3-.18-.59-.37-.9-.54a1,1,0,0,0-1.35.27,2.47,2.47,0,0,0-.48,1c-.39,1.76-.74,3.53-1.09,5.3a.8.8,0,0,0,.06.3Z"/><path class="cls-23" d="M35.9,36.86h-.15l-.2-.62c-.11-.61-.22-1.22-.32-1.82Q34.1,27.74,33,21.09a1.48,1.48,0,0,0-.2-.37l.14-.06a5.15,5.15,0,0,1,.27.71Q34.5,28.71,35.77,36a8.89,8.89,0,0,0,.26.88Z"/><path class="cls-24" d="M43.74,44.6,43.2,44a1.89,1.89,0,0,0-.3-.19,1.28,1.28,0,0,0-.14.35c0,1,0,2,0,3A1.15,1.15,0,0,1,42,46c.06-.61,0-1.23,0-1.84s-.06-1,.89-.68Z"/><path class="cls-25" d="M12.35,45.1l-1.44,1.09s-.08-.07-.08-.1c0-.78,0-1.57,0-2.35a.54.54,0,0,1,.38-.08,6.2,6.2,0,0,1,.61.54Z"/><path class="cls-26" d="M6.52,60.4l1.09.21,1.11.06h.19l.9.07a1,1,0,0,0,0,.37c.13.41-.07.46-.41.45s-.89,0-1.33,0l-.94,0Z"/><path class="cls-27" d="M40.89,60.65H44.4l.69-.06h.35c-.16.32-.53.63,0,1l0,0-1.45,0-3.51,0a20.44,20.44,0,0,0,2.08-.08c.17,0,.28-.4.42-.62a1.64,1.64,0,0,0-.44-.18c-.48,0-1,0-1.44,0h-.13v-.09Z"/><path class="cls-28" d="M41.73,43.1a7.25,7.25,0,0,0-.26,1.21c0,.64,0,1.29,0,2.1L39.88,45.3a2.12,2.12,0,0,0,.36-.3c.4-.56.78-1.13,1.19-1.69A1.34,1.34,0,0,1,41.73,43.1Z"/><path class="cls-29" d="M11.81,44.2a6.2,6.2,0,0,0-.61-.54.54.54,0,0,0-.38.08c0,.78,0,1.57,0,2.35,0,0,.06.07.08.1-.2.15-.41.3-.75.53v-1c0-.62,0-1.24,0-1.85,0-.23.15-.59.3-.65s.48.13.72.24a1.22,1.22,0,0,1,.29.23Z"/><path class="cls-30" d="M20.66,61.49c0,.38,0,.77-.07,1.15-.07.83-.18,1.66-.23,2.49,0,.46-.22.63-.66.55a2.86,2.86,0,0,1,0-.58c.18-1,.39-1.94.59-2.9l.06-.35.28-.38Z"/><path class="cls-31" d="M9.81,60.75l-.9-.07.56,0h.82l3.5-.07-.33.74.34.09-.08.12a3.25,3.25,0,0,0-.44,0l-2.3.11c.45-.05.39-.43.41-.72a1.15,1.15,0,0,0-.53-.15C10.51,60.73,10.16,60.75,9.81,60.75Z"/><path class="cls-32" d="M30.59,8.94A18.32,18.32,0,0,0,30.2,7C29.79,5.65,29.33,4.3,28.89,3a1.94,1.94,0,0,1-.07-.33,20,20,0,0,1,.89,1.94c.51,1.47,1,3,1.44,4.44l.08.67-.62-.61Z"/><path class="cls-33" d="M32.6,65.75a1.51,1.51,0,0,1-1.44.53c-1.33,0-2.65,0-4,0a.52.52,0,0,1-.33-.15h2.36V66l-2.81-.19,0,0,2.11.08h.69l2.9-.06h.46Z"/><path class="cls-34" d="M19.77,65.75l2.2.06H23.2l2.21-.06h.19l.46-.09,0,0a3,3,0,0,1-2.26.59c-1.07,0-2.14,0-3.21-.07a.76.76,0,0,1-.47-.19l.77.06H23.4v-.21H21.89Z"/><path class="cls-35" d="M11,61.63l2.3-.11a3.25,3.25,0,0,1,.44,0,5.17,5.17,0,0,1-1.12.26c-1.59,0-3.17,0-4.76-.05a3,3,0,0,1-.75-.21l.94,0Z"/><path class="cls-36" d="M52.09,59h-.61c-.6-1.57-1.18-3.15-1.81-4.72a4.34,4.34,0,0,0-.66-.92,14.07,14.07,0,0,1,1.25,1.79c.56,1.17,1,2.4,1.48,3.6C51.78,58.81,52,58.87,52.09,59Z"/><path class="cls-8" d="M40.42,61.64l3.51,0,1.45,0a3.12,3.12,0,0,1-.71.19c-1.71,0-3.41,0-5.12,0a3,3,0,0,1-.75-.2l1,0Z"/><path class="cls-36" d="M.4,59q.87-2.14,1.75-4.29a4.87,4.87,0,0,1,.32-.52c-.18.54-.35,1.09-.55,1.62C1.52,56.83,1.1,57.89.68,59Z"/><path class="cls-37" d="M45.44,60.61h-.35c.25-.08.5-.09.44-.52C45.38,59,45.42,59,44.35,59c-.42,0-.46-.18-.42-.5.06.39.32.47.66.41h.17c.35,0,.78-.09,1,.08s.18.59.25.9l-.06.46Z"/><path class="cls-11" d="M32.6,65.75h-.27l.06-.08c0-.12.16-.25.14-.37-.11-.62-.24-1.25-.37-1.87s-.3-1.25-.45-1.88h-.07l.26-.06.14.35c.22,1.1.45,2.2.65,3.3A2.13,2.13,0,0,1,32.6,65.75Z"/><path class="cls-3" d="M18.1,58l.16-.19.33-.07-.12.35a3.78,3.78,0,0,0-.14.65c0,.93,0,1.85-.07,2.77l-.21-.13a1,1,0,0,0,.06-.23c0-1,.07-2,.09-3C18.2,58.12,18.13,58.05,18.1,58Z"/><path class="cls-1" d="M18.1,58c0,.07.1.14.1.2,0,1-.05,2-.09,3a1,1,0,0,1-.06.23c0-.84-.08-1.68-.1-2.52,0-.29,0-.57,0-.85Z"/><path class="cls-38" d="M39.8,61.58l-1,0-.57-1.17.53.15,1.06.13c-1,0-1,.09-.6.63.11.15.39.17.6.25Z"/><path class="cls-36" d="M21.89,65.89H23.4v.21H20.93Z"/><path class="cls-34" d="M25.25,61.7v-.2h.08c.25,1.24.51,2.49.77,3.74,0,0,.11.06.17.09l.13.36,0,0,0,0-.31-.05,0,0Z"/><path class="cls-39" d="M13.8,61.43l-.34-.09.33-.74.35-.13h.14Z"/><path class="cls-40" d="M45.44,60.61l.54-.22-.55,1.17C44.91,61.24,45.28,60.93,45.44,60.61Z"/><path class="cls-41" d="M31.23,9.67,31.15,9l.23.66Z"/><path class="cls-1" d="M6.52,59.44v0Z"/><path class="cls-38" d="M32,61.85l-.14-.35v-.06l.36.06Z"/><path class="cls-3" d="M20.32,61.85l-.06.35,0-.43Z"/><path class="cls-17" d="M10,43.1l-.28.2Z"/><path class="cls-6" d="M19.56,30.47l.53.51a.7.7,0,0,1,.64-.85v2.76c0,2.08,0,4.16,0,6.24,0,.36,0,.72.07,1.09l-1.18.54c0-.23-.06-.45-.06-.68V30.47ZM20,32.2c0,.24,0,.48,0,.71,0,.07.08.14.13.21s.13-.13.13-.2c0-.45,0-.91,0-1.36,0-.07-.08-.14-.13-.21s-.12.13-.13.2S20,32,20,32.2Zm.27,3.39c0-.24,0-.48,0-.71,0-.06-.09-.11-.13-.17s-.13.11-.13.16q0,.72,0,1.44s.08.11.12.16.13-.11.14-.16C20.27,36.07,20.26,35.83,20.26,35.59ZM20,38.92c0,.24,0,.48,0,.72,0,.07.09.13.14.19s.12-.12.12-.18c0-.46,0-.93,0-1.4,0-.06-.09-.12-.14-.18s-.11.13-.12.21A4.56,4.56,0,0,0,20,38.92Z"/><path class="cls-6" d="M19.63,50.92a5.05,5.05,0,0,1-.07-.68V41.61c0-.26,0-.52,0-.78a.85.85,0,0,0,.35,0c.28-.1.55-.24.83-.36a2.65,2.65,0,0,0-.07.48c0,2.85,0,5.71,0,8.57a3.66,3.66,0,0,0,.2.84Zm.63-8.6c0-.24,0-.48,0-.71,0-.07-.07-.13-.11-.19s-.14.13-.14.19c0,.47,0,.94,0,1.4,0,.06.08.11.13.17s.12-.11.12-.17C20.26,42.78,20.26,42.55,20.26,42.32ZM20,45.65c0,.23,0,.46,0,.68s.09.13.14.2.12-.11.12-.17c0-.47,0-.94,0-1.4,0-.06-.08-.12-.12-.18S20,44.9,20,45,20,45.42,20,45.65Z"/><path class="cls-42" d="M19.7,55.65c0-1.33-.09-2.66-.13-4,0-.22,0-.44,0-.67.11,0,.24.07.34,0,.28-.1.55-.24.83-.37a2.66,2.66,0,0,0-.07.37c0,1.43,0,2.86,0,4.29l-.35.08Z"/><path class="cls-43" d="M8.45,58.89l-.22-.15c.29-1.09.58-1.31,1.7-1.31h8.48l-.16.28H9.66C8.92,57.72,8.7,57.94,8.45,58.89Z"/><path class="cls-44" d="M19.7,55.65l.62-.26c1.71,0,3.43,0,5.15,0,.11,0,.22.19.33.28a3.75,3.75,0,0,0-.47,0H21.15a2.43,2.43,0,0,0-2.34,2.65l-.34-.19.12-.35Z"/><path class="cls-45" d="M20.73,50.65c-.28.13-.55.27-.83.37-.1,0-.23,0-.34,0l.07-.07,1.24-.54L24,50.3h2.11l0,.28L26,50.52H24.23c-.61,0-1.21,0-1.81,0S21.29,50.61,20.73,50.65Z"/><path class="cls-46" d="M20.73,40.49c-.28.12-.55.26-.83.36a.85.85,0,0,1-.35,0l.07-.07,1.18-.54,1.44-.07h1.7l2.14-.07.07.07c-.09.07-.17.18-.26.2a4.42,4.42,0,0,1-.63,0c-1,0-2-.07-3-.06C21.77,40.31,21.25,40.43,20.73,40.49Z"/><path class="cls-47" d="M33.83,28l-.38-1.13h-.08a2.2,2.2,0,0,0-.07.56c.12,1.56.27,3.11.38,4.67.08,1.08.08,2.17.16,3.24.13,1.79.31,3.56.43,5.35a11.48,11.48,0,0,0,1,4.49,35.08,35.08,0,0,0,2.1,3.38c.5.75,1.1,1.45,1.63,2.19s.9,1.41,1.38,2.1c.3.44.7.82,1,1.27s.46.95.72,1.42c.17.31.39.6.58.89l.81,1.22-.34-.15c-.13-.16-.23-.42-.39-.47-.88-.28-1.77-.53-2.66-.76a1.37,1.37,0,0,1-1.12-.73c-.33-.77-.72-1.51-1.09-2.26-.18-.36-.42-.68-.58-1a20.59,20.59,0,0,0-.83-2,18.92,18.92,0,0,1-2.51-6,33.39,33.39,0,0,1-.48-4.58c-.16-3.07-.24-6.14-.36-9.21,0-1.23-.13-2.46-.18-3.69-.06-1.52-.11-3-.15-4.55,0-.1.08-.2.12-.3h0l.13.41h0v.39l.42,2.43h0Z"/><path class="cls-4" d="M52.09,59c-.12-.08-.31-.14-.35-.25-.5-1.2-.92-2.43-1.48-3.6A14.07,14.07,0,0,0,49,53.31,18.24,18.24,0,0,0,47.53,52c-2.35-1.67-4.7-3.33-7.08-4.94a12.56,12.56,0,0,1-3.93-4.24,14.23,14.23,0,0,1-1.08-4.3c-.1-.8-.1-1.62-.22-2.41-.34-2.3-.71-4.59-1.08-6.88-.23-1.38-.47-2.75-.71-4.12h0l-.36-2.4L33,22.3h0l-.13-.41h0v-.49L32.75,21s0,0,0-.06l.07-.22a1.48,1.48,0,0,1,.2.37q1.11,6.66,2.23,13.33c.1.6.21,1.21.32,1.82.17,1.06.36,2.11.49,3.18a9.2,9.2,0,0,0,3.66,6.43c2.15,1.65,4.45,3.11,6.65,4.7,1.07.77,2.07,1.63,3.07,2.49a5.84,5.84,0,0,1,.75,1.05q.94,2.28,1.88,4.57A.88.88,0,0,1,52.09,59Z"/><path class="cls-16" d="M43.1,57.51l.34.15.49.88c0,.32,0,.52.42.5,1.07,0,1,0,1.18,1.05.06.43-.19.44-.44.52h-.68c-.46,0-.91,0-1.37,0-.1,0-.28-.14-.28-.21,0-.66,0-1.32,0-2,0-.11.2-.22.32-.33l.52.93a1,1,0,0,0-1-1.28H34.55a2.44,2.44,0,0,1-.52-.12h0a1.23,1.23,0,0,1,.38-.13h6.72l1.88,0Z"/><path class="cls-48" d="M33.43,25.11c.24,1.37.48,2.74.71,4.12.37,2.29.74,4.58,1.08,6.88.12.79.12,1.61.22,2.41a14.23,14.23,0,0,0,1.08,4.3,15.59,15.59,0,0,1-.81-2.22c-.26-1.39-.34-2.8-.55-4.2-.42-2.8-.88-5.59-1.33-8.39C33.7,27,33.56,26.08,33.43,25.11Z"/><path class="cls-38" d="M26,50.52l.14.06h0V56a.86.86,0,0,0-.07.21v5a.7.7,0,0,0,.1.26c0-.09.12-.18.12-.27,0-1.64,0-3.28,0-4.93,0-.06-.06-.13-.09-.2l.14-.21.26-.34,0,.14v.33a2,2,0,0,0-.28.71q0,2.05.06,4.11a1.56,1.56,0,0,0,.22.5,1.81,1.81,0,0,0,.18-.49c.06-1.54.1-3.08.14-4.62h.35c.54,0,.67.21.57.74A2.08,2.08,0,0,0,27.83,58a6.32,6.32,0,0,1,.1,2.63c0,.82,0,.82.77.85l-1,0c-.21,0-.42.06-.62.08l-.06.09L27,61.5H25.26c-1.07,0-2.13,0-3.2,0-.47,0-.93,0-1.4,0l-.06,0c.5,0,1,0,1.5-.13a.51.51,0,0,0,.33-.38c.05-1.18.06-2.37.07-3.55a.87.87,0,0,1,.65-.86,3.36,3.36,0,0,0,.6-.41c.45,0,.91,0,1.37,0s.49.11.49.47c0,.7,0,1.39,0,2.09,0,.5.07,1,.11,1.51a.32.32,0,0,0,.15-.27c0-1.11,0-2.23.08-3.34,0-.44-.13-.61-.59-.6-1.64,0-3.28,0-4.93,0a5.54,5.54,0,0,1,.57-.07c1.48,0,3,0,4.45,0,.12,0,.23-.16.35-.25-.11-.09-.22-.28-.33-.28-1.72,0-3.44,0-5.15,0l.35-.08h3.62c.26,0,.52,0,.78,0s.81-.19.94.41Z"/><path class="cls-49" d="M43,57.49l-1.88,0H34.37a1.23,1.23,0,0,0-.38.13l-.3-.33a2.55,2.55,0,0,0-1.36-1.8.73.73,0,0,1-.1-.28c0-1.17,0-2.34,0-3.52,0-.2.19-.4.26-.61s0-.17-.06-.25c0-.38,0-.76,0-1.13,0-1-.05-2-.07-3.07a.08.08,0,0,1,0-.05l.07-.07h.05l.15,2.39c.21.17.35.22.38.31a23.2,23.2,0,0,1,1.41,6.26c0,.27,0,.69.21.79A6.75,6.75,0,0,0,37,57.32a42,42,0,0,0,4.76,0Z"/><path class="cls-42" d="M28.7,61.43c-.8,0-.79,0-.77-.85a6.32,6.32,0,0,0-.1-2.63,2.08,2.08,0,0,1,.06-1.07c.1-.53,0-.72-.57-.74l2.45,0c.05,0,.15.08.15.11a.27.27,0,0,1-.11.19,1.84,1.84,0,0,0-.87,2.11,19.93,19.93,0,0,1,0,2.32c0,.34.12.48.46.47.51,0,1,0,1.53.06Z"/><path class="cls-13" d="M28.7,61.43H31l.95,0v.06l-.26.06-.14,0h-.07L30,61.51a6.91,6.91,0,0,0-.79,0,.42.42,0,0,0-.3.2c-.2,1.28-.39,2.55-.57,3.83,0,.08.14.17.21.26l-2.11-.08,0,0c.43.07.58-.14.62-.55.09-1.11.23-2.22.33-3.33,0-.07-.17-.16-.25-.25.2,0,.41-.07.62-.08Z"/><path class="cls-42" d="M27,56.14c0,1.54-.08,3.08-.14,4.62a1.81,1.81,0,0,1-.18.49,1.56,1.56,0,0,1-.22-.5q-.06-2.05-.06-4.11a2,2,0,0,1,.28-.71h5A2.57,2.57,0,0,1,32,56l-4.86,0c-.69,0-.77.11-.57.73Z"/><path class="cls-16" d="M32,56a2.57,2.57,0,0,0-.4-.06h-5V55.6a5.48,5.48,0,0,0,.57,0H31.7a1.45,1.45,0,0,1,1.37.81A11.79,11.79,0,0,1,33.63,58s-.14.14-.21.21a7.78,7.78,0,0,0-.53-1.37A5.15,5.15,0,0,0,32,56Z"/><path class="cls-50" d="M33.42,58.21c.07-.07.22-.17.21-.21a11.79,11.79,0,0,0-.56-1.54,1.45,1.45,0,0,0-1.37-.81H27.22a5.48,5.48,0,0,1-.57,0l0-.14a.25.25,0,0,1,0-.07h5.41l.28.07a2.55,2.55,0,0,1,1.36,1.8,6.51,6.51,0,0,1,.23.71.3.3,0,0,1-.13.27A.94.94,0,0,1,33.42,58.21Z"/><path class="cls-29" d="M2.06,54.08a3.86,3.86,0,0,1,1.61-2.2C6.44,49.89,9.25,48,12,46a9.27,9.27,0,0,0,4-6.61c.11-.91.32-1.8.49-2.7a5.4,5.4,0,0,1,0,.7,37,37,0,0,1-.93,4.38,9.64,9.64,0,0,1-4,4.79q-2.68,1.83-5.34,3.72c-1,.75-2.12,1.51-3.1,2.35A8.41,8.41,0,0,0,2.06,54.08Z"/><path class="cls-51" d="M41.8,57.37a42,42,0,0,1-4.76,0,6.75,6.75,0,0,1-2.36-1.1c-.17-.1-.19-.52-.21-.79a23.2,23.2,0,0,0-1.41-6.26c0-.09-.17-.14-.38-.31l-.15-2.39.14-5.7-.14-.14c0-1.36,0-2.72,0-4.09,0-1.85,0-3.7.07-5.56a1.09,1.09,0,0,1,.13-.37,2.2,2.2,0,0,1,.06.37c0,2,0,3.95.08,5.92s0,3.75.15,5.61a19.31,19.31,0,0,0,1.32,5.94c.45,1.13,1,2.24,1.41,3.37S36.6,54,37,55.15a1.74,1.74,0,0,0,1.27,1.33c.84.18,1.69.36,2.53.56C41.14,57.12,41.47,57.26,41.8,57.37Z"/><path class="cls-41" d="M30.59,8.94l0,.12c.06.35.08.72.17,1.06a31.22,31.22,0,0,1,1.36,9.21,2.61,2.61,0,0,0,.34.9c-.07.07-.33.2-.33.33a2.26,2.26,0,0,0,.24.72c-.07.06-.19.12-.19.18,0,.48,0,.95,0,1.43,0,0,.16.06.25.09-.5.37-.29.9-.31,1.38,0,.09.17.18.26.28-.07,0-.19.07-.19.11q0,.78,0,1.56s.12.08.19.12a1.16,1.16,0,0,0,0,1.57c-.07,0-.19.07-.19.11q0,.78,0,1.56s.12.08.18.12l-.13.34a.86.86,0,0,1-.7-1c0-1.84,0-3.68-.06-5.52a2,2,0,0,0-.07-.4,2.63,2.63,0,0,0-.2,1c0,1.55,0,3.11-.07,4.66,0,.81-.14.94-.83.94a1.68,1.68,0,0,0,.2-.52c0-2.58.06-5.16.08-7.73a4.43,4.43,0,0,1,0-.52c.13-1.05.14-1.05-.84-1.33l.21-.13c.54.09.74-.14.68-.68q-.16-1.74-.27-3.48c0-.34.08-.69.05-1-.18-1.56-.39-3.13-.58-4.69-.07-.55-.11-1.1-.16-1.65Zm-.1,7.21c.55-.38.15-.66,0-.95Z"/><path class="cls-52" d="M30.33,29.79c.69,0,.81-.13.83-.94,0-1.55,0-3.11.07-4.66a2.63,2.63,0,0,1,.2-1,2,2,0,0,1,.07.4c0,1.84.07,3.68.06,5.52a.86.86,0,0,0,.7,1h0s-.09.11-.13.1c-.62-.11-.56.31-.56.7,0,3,.05,5.91.06,8.87a.56.56,0,0,0,.49.63l.34.2c-.06,0-.13.09-.17.08-.5-.16-.47.2-.48.49,0,.78,0,1.56,0,2.34,0,2.16,0,4.31,0,6.46,0,.22.25.44.39.65l.2.14a.77.77,0,0,0-.23.06c-.14.09-.36.2-.37.31,0,1.25,0,2.5,0,3.76,0,.15.19.31.29.46H26.64l1.84-.08h1.44c.6.1.53-.37.54-.7,0-1,0-2,.05-3,0-.45.24-1-.46-1.16,0,0,0-.08-.05-.12h.33c.36,0,.42-.2.42-.48,0-1.67.05-3.34.06-5,0-1.12,0-2.24,0-3.36,0-.54.1-1.07-.55-1.32h.13c.4.05.48-.2.48-.53,0-1.62.05-3.25.07-4.88,0-1.37,0-2.74.09-4.11,0-.56-.18-.76-.7-.7h0v-.14Z"/><path class="cls-48" d="M41.8,57.37c-.33-.11-.66-.25-1-.33-.84-.2-1.69-.38-2.53-.56A1.74,1.74,0,0,1,37,55.15c-.39-1.11-.79-2.23-1.23-3.33s-1-2.24-1.41-3.37A19.31,19.31,0,0,1,33,42.51c-.13-1.86-.12-3.74-.15-5.61S32.83,33,32.8,31a2.2,2.2,0,0,0-.06-.37c-.07-.7-.17-1.4-.19-2.1,0-.5.11-1,.11-1.49,0-1.43-.06-2.86-.06-4.29,0-.6.08-1.2.13-1.79,0,0,0,0,0,.06l.13.41v.49c0,.1-.13.2-.12.3,0,1.51.09,3,.15,4.55.05,1.23.13,2.46.18,3.69.12,3.07.2,6.14.36,9.21a33.39,33.39,0,0,0,.48,4.58,18.92,18.92,0,0,0,2.51,6,20.59,20.59,0,0,1,.83,2c.16.36.4.68.58,1,.37.75.76,1.49,1.09,2.26a1.37,1.37,0,0,0,1.12.73c.89.23,1.78.48,2.66.76.16.05.26.31.39.47l-.13,0Z"/><path class="cls-41" d="M32.12,40.43a.56.56,0,0,1-.49-.63c0-3,0-5.92-.06-8.87,0-.39-.06-.81.56-.7,0,0,.09-.07.13-.1l.31.22c-.17.1-.42.19-.41.27a2.53,2.53,0,0,0,.2.7c0,.07.1.12.1.17,0,.55-.05,1.1-.07,1.65V31.4h-.16c0,.56,0,1.12,0,1.68,0,0,.1,0,.15.06a1.26,1.26,0,0,0-.07,1.53c.06,0,.13.12.13.18,0,.55,0,1.1-.07,1.65V34.76h-.17c0,.55,0,1.09,0,1.64,0,0,.11.06.17.1A1.45,1.45,0,0,0,32.27,38v1.84Z"/><path class="cls-53" d="M32.19,50.65c-.14-.21-.39-.43-.39-.65,0-2.15,0-4.3,0-6.46,0-.78,0-1.56,0-2.34,0-.29,0-.65.48-.49,0,0,.11-.05.17-.08h.07l.14.14c-.19.16-.79.14-.27.61l-.09,0h0l-.1,1.78h0l.14.07c-.15.51-.33,1,.07,1.49h-.13l-.09,1.78a.13.13,0,0,1,0,.06Z"/><path class="cls-54" d="M32.45,23c-.09,0-.25-.06-.25-.09,0-.48,0-.95,0-1.43,0-.06.12-.12.19-.18Z"/><path class="cls-55" d="M32.4,26.43c-.07,0-.19-.08-.19-.12q0-.78,0-1.56s.12-.07.19-.11Z"/><path class="cls-24" d="M32.39,29.79c-.06,0-.18-.08-.18-.12q0-.78,0-1.56s.12-.07.19-.11Z"/><path class="cls-56" d="M32.26,39.87V38h0c0,.61,0,1.23,0,1.84h-.06Z"/><path class="cls-41" d="M32.32,39.87c0-.61,0-1.23,0-1.84.06.12.16.25.15.37C32.43,38.9,32.37,39.38,32.32,39.87Z"/><path class="cls-57" d="M21.27,29.78H21c-.09-.11-.27-.22-.27-.32,0-2.49-.05-5-.07-7.46,0-.68,0-1.36,0-2a4.66,4.66,0,0,1,1-.19c1.32,0,2.65,0,4,0,.38,0,.49.14.49.51q0,4.52,0,9.05a3.06,3.06,0,0,1-.07.4H22.15C21.86,29.72,21.57,29.76,21.27,29.78Z"/><path class="cls-58" d="M20,22.14c0-.2,0-.41,0-.61s.08-.16.13-.24c.05.07.14.14.15.22,0,.45,0,.91,0,1.36,0,.06-.08.12-.12.18s-.13-.13-.14-.19c0-.24,0-.48,0-.72Z"/><path class="cls-37" d="M20,25.52c0-.23,0-.46,0-.69,0-.06.08-.12.12-.18s.14.12.14.19c0,.45,0,.91,0,1.37,0,.06-.09.13-.13.19a.49.49,0,0,1-.13-.2A5.14,5.14,0,0,1,20,25.52Z"/><path class="cls-59" d="M20.27,28.9c0,.22,0,.45,0,.68,0,.06-.07.12-.11.18s-.15-.12-.15-.19c0-.46,0-.93,0-1.4,0-.05.08-.11.12-.16s.12.11.13.17c0,.24,0,.48,0,.71Z"/><path class="cls-60" d="M24.78,7c.14-.61.32-1.22.4-1.83.15-1.24.25-2.48.37-3.71,0-.13,0-.29.08-.36s.42-.51.62-.5a.82.82,0,0,1,.56.54c.15.81.21,1.63.3,2.44.1,1,.18,2,.29,3a1.64,1.64,0,0,0,.18.46h-2.8Z"/><path class="cls-51" d="M28.14,7.14l.62.2a5.07,5.07,0,0,0,0,.68c.29,1.8.59,3.6.88,5.4,0,.09-.12.21-.19.31l-.4-.56-.26.16L29.17,15H29l-.34-2v.73c0,.92,0,.92-.89.81-.37-.1-.75-.19-1.12-.32a.51.51,0,0,1-.3-.33,12,12,0,0,1,0-1.47s.2-.08.31-.13h-.1c0,.61-.24,1.47.07,1.77s1.25.39,2,.57v-.72c0-.43.15-.94-.5-1.07.06-.1.18-.2.17-.28-.17-1.24-.35-2.47-.52-3.71-.08-.54-.13-1.09-.19-1.64Z"/><path class="cls-45" d="M29.49,13.73c.07-.1.2-.22.19-.31-.29-1.8-.59-3.6-.88-5.4a5.07,5.07,0,0,1,0-.68l.62.34.34.35c.05.55.09,1.1.16,1.65.19,1.56.4,3.13.58,4.69,0,.34-.07.69-.05,1q.11,1.74.27,3.48c.06.54-.14.77-.68.68h-.08c0-1,0-1.94,0-2.91a6.71,6.71,0,0,0-.25-1.23l.47.44.05-1.3Z"/><path class="cls-61" d="M23.9,7.21a.8.8,0,0,1-.06-.3c.35-1.77.7-3.54,1.09-5.3a2.47,2.47,0,0,1,.48-1A1,1,0,0,1,26.76.35c.31.17.6.36.9.54-.17,0-.4.08-.5,0C26.81.58,26.5.19,26,.39a1.3,1.3,0,0,0-.76,1.17c-.22,1.53-.47,3.05-.72,4.57a7.41,7.41,0,0,1-.27,1v.06Z"/><path class="cls-62" d="M24.23,7.14V7.08l.28,0h3.27a1.53,1.53,0,0,1,.36.07H26.29a.09.09,0,0,0-.07,0h-2Z"/><path class="cls-61" d="M25.4,7.06h-.89L24.78,7h.61Z"/><path class="cls-3" d="M20.43,56c1.65,0,3.29,0,4.93,0,.46,0,.6.16.59.6,0,1.11-.05,2.23-.08,3.34a.32.32,0,0,1-.15.27c0-.51-.1-1-.11-1.51,0-.7,0-1.39,0-2.09,0-.36-.14-.49-.49-.47s-.92,0-1.37,0h-1.2c-.95,0-1.44.41-1.46,1.37s.07,1.69.09,2.53a6.65,6.65,0,0,1-.07,1.09.33.33,0,0,1-.22.21c-.55,0-1.1,0-1.64,0a.31.31,0,0,1-.22-.21c0-1,0-1.91,0-2.87l.34-1C19.59,56.7,19.79,56.17,20.43,56Z"/><path class="cls-43" d="M20.43,56c-.64.18-.84.71-1,1.26l-.34,1h-.26a2.43,2.43,0,0,1,2.34-2.65h4.18a3.75,3.75,0,0,1,.47,0c-.12.09-.23.25-.35.25-1.48,0-3,0-4.45,0A5.54,5.54,0,0,0,20.43,56Z"/><path class="cls-63" d="M24.23,7.14h1.85c0,1.5,0,3,0,4.51,0,.19-.21.38-.33.57l-1.68.66c-.1,0-.24.12-.24.19,0,.48,0,1,0,1.48l1.86-.43.4,0c0,.13,0,.25,0,.38,0,1.51,0,3,0,4.52,0,.45-.14.57-.57.56-1.06,0-2.13,0-3.19,0-.56,0-1.11.08-1.67.13A39.76,39.76,0,0,1,21.89,9.46,4.07,4.07,0,0,0,22,8.85l.28-.41,1-.95.62-.28Zm-.78,6.08c-1.08.87-1.46,1.7-1.21,2.6A2.2,2.2,0,0,0,23.45,13.22Zm-1.51,1.85c-.47.58-.47.86,0,1.06Z"/><path class="cls-6" d="M26.36,55.8l-.14.21L26.14,56v-.08a3.32,3.32,0,0,0,.06-.44q0-2.2,0-4.41a3.32,3.32,0,0,0-.06-.44h0l0-.28H24a2.19,2.19,0,0,0,.34-.66c.19-1.55.32-3.1.52-4.64.17-1.31.4-2.61.63-3.9.07-.34.07-.58-.25-.74a4.42,4.42,0,0,0,.63,0c.09,0,.17-.13.26-.2a5,5,0,0,0,.06-.54c0-3.27,0-6.55,0-9.82h.14a1.27,1.27,0,0,0,.32.13h1.25a4.34,4.34,0,0,0,.61.06c.49,0,.66.18.63.64s-.05,1.14-.07,1.71c-.07,2.48-.13,5-.21,7.45,0,.1-.18.27-.28.28-.48,0-.95.06-1.43.08l-.82.14,2.33.07H29a1.43,1.43,0,0,1,.11.39c0,1.16,0,2.31-.06,3.47-.06,1.45-.13,2.91-.28,4.35a9.35,9.35,0,0,1-.52,1.74c-.53,0-1.05,0-1.57,0-.1,0-.19.13-.28.19a3.06,3.06,0,0,1,.12.66C26.45,52.72,26.4,54.26,26.36,55.8Z"/><path class="cls-1" d="M22.24,40.15l-1.44.07c0-.37-.07-.73-.07-1.09,0-2.08,0-4.16,0-6.24V30.13l1.23-.2a3.78,3.78,0,0,0,.47.06H26c0,.39.06.77.07,1.15,0,1,0,2.07,0,3.11,0,.2-.07.41-.1.62-.13.76-.22,1.52-.38,2.26s-.41,1.46-.53,2.21c-.08.5-.25.76-.79.75S22.92,40.13,22.24,40.15Z"/><path class="cls-64" d="M26.36,29.79h-.14V7.15a.09.09,0,0,1,.07,0V19.07a1.81,1.81,0,0,0,.14.49c.08.07.17.19.25.19.46,0,.93,0,1.39,0a2.2,2.2,0,0,0,.37.06c.37,0,.46.21.44.54-.05.62-.09,1.25-.12,1.87-.11,2.37-.21,4.73-.3,7.1,0,.32-.13.38-.4.38-.57,0-1.14,0-1.7.07Z"/><path class="cls-65" d="M25.66,14.13l-1.86.43c0-.51,0-1,0-1.48,0-.07.14-.15.24-.19l1.68-.66c.07.07.2.14.2.22a11.8,11.8,0,0,1,0,1.33C25.93,13.91,25.76,14,25.66,14.13Z"/><path class="cls-6" d="M22.24,40.15c.68,0,1.36-.07,2-.06s.71-.25.79-.75c.12-.75.38-1.47.53-2.21s.25-1.5.38-2.26c0-.21.07-.42.1-.62v5.83l-2.14.07Z"/><path class="cls-6" d="M21.27,29.78c.3,0,.59-.06.88-.06H26c-.22,0-.45.06-.67.06Z"/><path class="cls-6" d="M26,30H22.43a3.78,3.78,0,0,1-.47-.06h3.62A3.18,3.18,0,0,1,26,30Z"/><path class="cls-66" d="M43.1,58.07c-.12.11-.32.22-.32.33,0,.66,0,1.32,0,2,0,.07.18.21.28.21.46,0,.91,0,1.37,0v.06H41.66c-.32,0-.38-.21-.35-.51,0-.6,0-1.2.09-1.8a.62.62,0,0,1,.39-.4A9.67,9.67,0,0,1,43.1,58.07Z"/><path class="cls-13" d="M39.82,60.67l-1.06-.13c.1-.12.28-.22.29-.35.07-.64.1-1.27.15-1.91,0-.08.07-.22.12-.22a3.79,3.79,0,0,1,1,0c.09,0,.15.37.15.56a10.85,10.85,0,0,1-.06,1.4c-.05.4,0,.64.48.63v0l-1,0Z"/><path class="cls-67" d="M25.41,65.76l-2.21.06c-.28,0-.38-.18-.36-.49.09-1,.18-2.08.2-3.12,0-.44.08-.72.57-.7h1.16a.43.43,0,0,0,0,.05h-.89v4.2Z"/><path class="cls-68" d="M23.61,61.51c-.49,0-.56.26-.57.7,0,1-.11,2.08-.2,3.12,0,.31.08.44.36.49H22c-.06-.09-.17-.18-.16-.27.14-1.25.29-2.5.46-3.74a.51.51,0,0,1,.35-.28A8.18,8.18,0,0,1,23.61,61.51Z"/><path class="cls-69" d="M24.78,61.56a.43.43,0,0,1,0-.05l.48.19.81,4-.46.09a2.14,2.14,0,0,0,0-.44c-.2-1.11-.41-2.21-.63-3.32A2,2,0,0,0,24.78,61.56Z"/><path class="cls-29" d="M50.17,54.09A5.84,5.84,0,0,0,49.42,53c-1-.86-2-1.72-3.07-2.49-2.2-1.59-4.5-3-6.65-4.7A9.2,9.2,0,0,1,36,39.42c-.13-1.07-.32-2.12-.49-3.18l.2.62c.28,1.43.45,2.9.85,4.3a9.16,9.16,0,0,0,3.84,5q3.93,2.74,7.85,5.51A4.28,4.28,0,0,1,50.17,54.09Z"/><path class="cls-70" d="M14.14,60.47l-.35.13-3.5.07-.27-.1c0-.73,0-1.43,0-2.13a1.8,1.8,0,0,1,.2-.51c1.07,0,2.14,0,3.21,0,.32,0,.48.1.5.45C14,59.07,14.07,59.77,14.14,60.47Zm-1.85.12v0a9.81,9.81,0,0,0,1.09-.1.45.45,0,0,0,.27-.33c0-.64-.07-1.27-.14-1.91a.47.47,0,0,0-.29-.28,15,15,0,0,0-1.64,0,.47.47,0,0,0-.31.3,14.42,14.42,0,0,0,0,1.47c0,.27,0,.69.12.78S12,60.59,12.29,60.59Z"/><path class="cls-71" d="M10.23,57.93a1.8,1.8,0,0,0-.2.51c0,.7,0,1.4,0,2.13l.27.1H9.47l-.34-.06a19,19,0,0,0,.12-2c0-.56.16-.78.71-.69A1.22,1.22,0,0,0,10.23,57.93Z"/><path class="cls-31" d="M8.72,60.67l-1.11-.06h1.1S8.72,60.65,8.72,60.67Z"/><path class="cls-21" d="M8.72,60.67s0,0,0-.06h.42l.34.06-.56,0Z"/><path class="cls-45" d="M11,61.63l-3-.06c.44,0,.89,0,1.33,0s.54,0,.41-.45a1,1,0,0,1,0-.37c.35,0,.7,0,1,0a1.15,1.15,0,0,1,.53.15C11.37,61.2,11.43,61.58,11,61.63Z"/><path class="cls-38" d="M40.42,61.64l-.62-.06,0,0h1.31L41,60.74c.48,0,1,0,1.44,0a1.64,1.64,0,0,1,.44.18c-.14.22-.25.6-.42.62A20.44,20.44,0,0,1,40.42,61.64Z"/><path class="cls-72" d="M41,60.74l.09.81H39.82c-.21-.08-.49-.1-.6-.25-.4-.54-.36-.58.6-.63h.12l1,.07Z"/><path class="cls-38" d="M40.91,60.74l-1-.07,1,0Z"/><path class="cls-37" d="M44.4,60.67v-.06h.68Z"/><path class="cls-73" d="M31.43,61.57h.07c0,.32.06.64.11,1,.19,1.07.39,2.15.58,3.23h0c-.48,0-1,0-1.44,0-.11,0-.29-.16-.29-.24q0-1.48,0-3C30.42,61.56,30.43,61.56,31.43,61.57Z"/><path class="cls-74" d="M31.43,61.57c-1,0-1,0-1,1s0,2,0,3c0,.08.18.23.29.24.48,0,1,0,1.44,0l-2.9.06c.08-1.23.18-2.45.25-3.68,0-.36.08-.62.51-.63Z"/><path class="cls-75" d="M30,61.51c-.43,0-.49.27-.51.63-.07,1.23-.17,2.45-.25,3.68h-.69c-.07-.09-.22-.18-.21-.26.18-1.28.37-2.55.57-3.83a.42.42,0,0,1,.3-.2A6.91,6.91,0,0,1,30,61.51Z"/><path class="cls-74" d="M32.19,65.76c-.19-1.08-.39-2.16-.58-3.23-.05-.31-.07-.63-.11-1l.14,0h.07a6,6,0,0,0,.05.74c.2,1.13.42,2.26.63,3.38l-.06.08Z"/><path class="cls-73" d="M24.78,61.56A2,2,0,0,1,25,62c.22,1.11.43,2.21.63,3.32a2.14,2.14,0,0,1,0,.44H23.89v-4.2Z"/><path class="cls-55" d="M32.39,65.68c-.21-1.12-.43-2.25-.63-3.38a6,6,0,0,1-.05-.74c.15.63.31,1.25.45,1.88s.26,1.25.37,1.87C32.55,65.43,32.44,65.56,32.39,65.68Z"/><path class="cls-76" d="M26.28,65.33l.13-.69.22-1h0l.13-.62L27,61.9l.08-.25.06-.09c.08.09.25.18.25.25-.1,1.11-.24,2.22-.33,3.33,0,.41-.19.62-.62.55Z"/><path class="cls-77" d="M20,32.2c0-.22,0-.44,0-.65s.09-.13.13-.2.13.14.13.21c0,.45,0,.91,0,1.36,0,.07-.09.13-.13.2S20,33,20,32.91C20,32.68,20,32.44,20,32.2Z"/><path class="cls-78" d="M20.26,35.59c0,.24,0,.48,0,.72,0,0-.09.11-.14.16s-.12-.11-.12-.16q0-.72,0-1.44s.08-.1.13-.16.12.11.13.17C20.27,35.11,20.26,35.35,20.26,35.59Z"/><path class="cls-79" d="M20,38.92a4.56,4.56,0,0,1,0-.64c0-.08.08-.14.12-.21s.14.12.14.18c0,.47,0,.94,0,1.4,0,.06-.07.12-.12.18s-.13-.12-.14-.19C20,39.4,20,39.16,20,38.92Z"/><path class="cls-3" d="M25.26,40.36c.32.16.32.4.25.74-.23,1.29-.46,2.59-.63,3.9-.2,1.54-.33,3.09-.52,4.64a2.19,2.19,0,0,1-.34.66l-3.15.08a3.66,3.66,0,0,1-.2-.84c0-2.86,0-5.72,0-8.57a2.65,2.65,0,0,1,.07-.48c.52-.06,1-.18,1.57-.19C23.28,40.29,24.27,40.34,25.26,40.36Z"/><path class="cls-80" d="M20.26,42.32c0,.23,0,.46,0,.69,0,.06-.08.11-.12.17S20,43.07,20,43c0-.46,0-.93,0-1.4,0-.06.09-.13.14-.19s.11.12.11.19C20.27,41.84,20.26,42.08,20.26,42.32Z"/><path class="cls-61" d="M20,45.65c0-.23,0-.46,0-.68s.1-.13.15-.19.11.12.12.18c0,.46,0,.93,0,1.4,0,.06-.08.11-.12.17s-.13-.13-.14-.2S20,45.88,20,45.65Z"/><path class="cls-64" d="M24.29,55.31H20.67c0-1.43,0-2.86,0-4.29a2.66,2.66,0,0,1,.07-.37c.56,0,1.12-.11,1.69-.13s1.2,0,1.81,0a2.77,2.77,0,0,1,.26.85C24.45,52.68,24.36,54,24.29,55.31Z"/><path class="cls-42" d="M24.29,55.31c.07-1.32.16-2.63.2-3.94a2.77,2.77,0,0,0-.26-.85H26v5.21c-.13-.6-.59-.39-.94-.41S24.55,55.31,24.29,55.31Z"/><path class="cls-48" d="M33.08,22.72l.36,2.4L33,22.69Z"/><path class="cls-23" d="M32.89,21.89l.13.41Z"/><path class="cls-23" d="M33.08,22.72l-.06,0V22.3Z"/><path class="cls-23" d="M32.88,21.41,32.75,21Z"/><path class="cls-42" d="M26.36,55.8c0-1.54.09-3.08.12-4.63a3.06,3.06,0,0,0-.12-.66h1.85c.72.09.77.55.63,1.13a4.26,4.26,0,0,0,0,.51c-.08.79-.15,1.58-.26,2.36,0,.26-.37.49-.08.79l-1.84.08a.25.25,0,0,0,0,.07Z"/><path class="cls-81" d="M26.14,56l.08.06c0,.07.09.14.09.2,0,1.65,0,3.29,0,4.93,0,.09-.08.18-.12.27a.7.7,0,0,1-.1-.26v-5A.86.86,0,0,1,26.14,56Z"/><path class="cls-42" d="M26.15,50.58a3.32,3.32,0,0,1,.06.44q0,2.2,0,4.41a3.32,3.32,0,0,1-.06.44Z"/><path class="cls-42" d="M27.05,61.65,27,61.9v-.4Z"/><path class="cls-53" d="M32.05,55.38c-.1-.15-.29-.31-.29-.46,0-1.26,0-2.51,0-3.76,0-.11.23-.22.37-.31a.77.77,0,0,1,.23-.06h.08c0,.08.09.18.06.25s-.25.41-.26.61c0,1.18,0,2.35,0,3.52a.73.73,0,0,0,.1.28Z"/><path class="cls-5" d="M32.47,50.79h-.08l-.2-.14V46.59h.2c0,1,0,2,.07,3.07C32.47,50,32.46,50.41,32.47,50.79Z"/><path class="cls-5" d="M32.4,41.38c-.52-.47.08-.45.27-.61-.05,1.9-.09,3.8-.14,5.7h-.05c0-.58,0-1.15-.08-1.73-.4-.48-.22-1-.07-1.49S32.38,42,32.4,41.38Z"/><path class="cls-82" d="M32.39,46.59h-.2a.13.13,0,0,0,0-.06l.09-1.78h0l.09,1.79A.08.08,0,0,0,32.39,46.59Z"/><path class="cls-52" d="M32.41,46.54l-.09-1.79h.08c0,.58.05,1.15.08,1.73Z"/><path class="cls-83" d="M28.07,19.77c-.46,0-.93,0-1.39,0-.08,0-.17-.12-.25-.19H30l-.21.13c1,.28,1,.28.84,1.33a4.43,4.43,0,0,0,0,.52c0,2.57,0,5.15-.08,7.73a1.68,1.68,0,0,1-.2.52H28.82a3,3,0,0,0,.68-.09c.14,0,.34-.21.34-.33q.09-4.55.14-9.11a.6.6,0,0,0-.37-.43A13.22,13.22,0,0,0,28.07,19.77Z"/><path class="cls-84" d="M30.49,16.15V15.2C30.64,15.49,31,15.77,30.49,16.15Z"/><path class="cls-85" d="M28.82,29.79h.56l.95.14h0a2.08,2.08,0,0,1,.19.58q0,3.69-.06,7.38c0,.76,0,1.51-.07,2.26h-.61c0-.71.06-1.41.06-2.12,0-2.51,0-5,.08-7.54,0-.3-.05-.51-.42-.51-.53,0-1.05,0-1.58-.05H26.68a1.27,1.27,0,0,1-.32-.13h2.46Z"/><path class="cls-86" d="M28.48,55.31c-.29-.3.05-.53.08-.79.11-.78.18-1.57.26-2.36a4.26,4.26,0,0,1,0-.51c.14-.58.09-1-.63-1.13.42,0,.84,0,1.26,0s.54.14.53.52c0,1.43-.06,2.85-.08,4.28Z"/><path class="cls-39" d="M29,40.36h-.27l-2.33-.07.82-.14h2.54c.07.05.15.13.22.14.48,0,.55.3.54.72,0,3-.05,5.91-.08,8.86a2.24,2.24,0,0,1-.07.44h-.48c0-1.17.12-2.34.14-3.52,0-1.8,0-3.61,0-5.42C30,40.22,30.16,40.37,29,40.36Z"/><path class="cls-41" d="M30.4,40.15c0-.75.06-1.5.07-2.26q0-3.69.06-7.38a2.08,2.08,0,0,0-.19-.58c.52-.06.72.14.7.7C31,32,31,33.37,31,34.74c0,1.63,0,3.26-.07,4.88C30.88,40,30.8,40.2,30.4,40.15Z"/><path class="cls-41" d="M30.33,50.31a2.24,2.24,0,0,0,.07-.44c0-2.95,0-5.91.08-8.86,0-.42-.06-.7-.54-.72-.07,0-.15-.09-.22-.14h.55c.65.25.57.78.55,1.32,0,1.12,0,2.24,0,3.36,0,1.66,0,3.33-.06,5C30.75,50.11,30.69,50.33,30.33,50.31Z"/><path class="cls-87" d="M29.85,50.3H30s0,.12.05.12c.7.18.47.71.46,1.16,0,1,0,2-.05,3,0,.33.06.8-.54.7,0-1.43,0-2.85.08-4.28,0-.38-.14-.54-.53-.52s-.84,0-1.26,0H26.36c.09-.06.18-.19.28-.19.52,0,1,0,1.57,0Z"/><path class="cls-41" d="M30.33,29.93l-.95-.14h.95Z"/><path class="cls-24" d="M32.39,33.14s-.15,0-.15-.06c0-.56,0-1.12,0-1.68h.16v1.74Z"/><path class="cls-60" d="M32.38,36.5c-.06,0-.16-.07-.17-.1,0-.55,0-1.09,0-1.64h.17V36.5h0Z"/><path class="cls-56" d="M32.28,41.39h0c0,.56,0,1.11.07,1.67,0,0-.13.07-.19.11h0C32.21,42.58,32.24,42,32.28,41.39Z"/><path class="cls-52" d="M32.19,43.18c.06,0,.19-.07.19-.11,0-.56-.05-1.11-.07-1.67l.09,0c0,.63,0,1.25-.07,1.87Z"/><path class="cls-52" d="M32.28,41.39c0,.6-.07,1.19-.1,1.78C32.21,42.58,32.24,42,32.28,41.39Z"/><path class="cls-52" d="M32.27,44.75l-.09,1.78Z"/><path class="cls-63" d="M27.52,19.56H26.43a1.81,1.81,0,0,1-.14-.49V7.15h1.29c.06.55.11,1.1.19,1.64.17,1.24.35,2.47.52,3.71,0,.08-.11.18-.17.28l-.19-.06-.35-.15-.89-.34c-.11,0-.31.08-.31.13a12,12,0,0,0,0,1.47.51.51,0,0,0,.3.33c.37.13.75.22,1.12.32,0,.1-.06.2-.07.3Z"/><path class="cls-88" d="M27.52,19.56l.21-4.78c0-.1.05-.2.07-.3.89.11.89.11.89-.81v-.73L29,15a1.59,1.59,0,0,0-.06.3l-.15,4.3Z"/><path class="cls-42" d="M28.82,19.56l.15-4.3A1.59,1.59,0,0,1,29,15h.14l.49.46a6.71,6.71,0,0,1,.25,1.23c0,1,0,1.94,0,2.91Z"/><path class="cls-89" d="M26.69,12.23l.89.34.35.15.19.06c.65.13.5.64.5,1.07v.72c-.71-.18-1.54-.16-2-.57s-.07-1.16-.07-1.77Z"/><path class="cls-89" d="M29.66,15.42,29.17,15l-.34-1.63.26-.16.4.56.69.83c0,.43,0,.86-.05,1.3Z"/><path class="cls-41" d="M30.13,15.86c0-.44,0-.87.05-1.3C30.16,15,30.15,15.42,30.13,15.86Z"/><path class="cls-16" d="M23.45,13.22a2.2,2.2,0,0,1-1.21,2.6C22,14.92,22.37,14.09,23.45,13.22Z"/><path class="cls-90" d="M21.94,15.07v1.06C21.47,15.93,21.47,15.65,21.94,15.07Z"/><path class="cls-86" d="M29.85,50.3H28.21a9.35,9.35,0,0,0,.52-1.74c.15-1.44.22-2.9.28-4.35.06-1.16,0-2.31.06-3.47a1.43,1.43,0,0,0-.11-.39c1.2,0,1-.14,1,1,0,1.81,0,3.62,0,5.42C30,48,29.9,49.13,29.85,50.3Z"/><path class="cls-10" d="M29.79,40.15H27.18c.48,0,.95,0,1.43-.08.1,0,.28-.18.28-.28.08-2.48.14-5,.21-7.45,0-.57,0-1.14.07-1.71s-.14-.69-.63-.64a4.34,4.34,0,0,1-.61-.06c.53,0,1.05.05,1.58.05.37,0,.42.21.42.51,0,2.52-.05,5-.08,7.54C29.85,38.74,29.81,39.44,29.79,40.15Z"/><path class="cls-86" d="M26.36,40.29l2.33.07Z"/><path class="cls-10" d="M28.82,29.79H26.36c.56,0,1.13-.06,1.7-.07.27,0,.39-.06.4-.38.09-2.37.19-4.73.3-7.1,0-.62.07-1.25.12-1.87,0-.33-.07-.54-.44-.54a2.2,2.2,0,0,1-.37-.06,13.22,13.22,0,0,1,1.54.06.6.6,0,0,1,.37.43q0,4.56-.14,9.11c0,.12-.2.29-.34.33A3,3,0,0,1,28.82,29.79Z"/><path class="cls-90" d="M12.29,60.59c-.3,0-.66.1-.87,0s-.11-.51-.12-.78a14.42,14.42,0,0,1,0-1.47.47.47,0,0,1,.31-.3,15,15,0,0,1,1.64,0,.47.47,0,0,1,.29.28c.07.64.12,1.27.14,1.91a.45.45,0,0,1-.27.33,9.81,9.81,0,0,1-1.09.1Z"/><path class="cls-34" d="M26.63,63.69l-.22,1Z"/><path class="cls-34" d="M26.76,63.07l-.13.62Z"/><path class="cls-51" d="M27.93,12.72l-.35-.15Z"/></g></g></svg>